<svg xmlns="http://www.w3.org/2000/svg" width="198" height="265" viewBox="0 0 198 265" fill="none"><g opacity="0.2"><path d="M79.7849 44.8442C70.0574 46.4234 62.7301 53.9085 60.8036 63.0359C74.5421 65.8468 86.67 73.8372 94.7236 85.207C97.0291 84.0385 99.3978 82.9962 101.893 82.0803C105.714 77.1218 107.609 70.679 106.504 64.0466C104.419 51.3819 92.4496 42.7282 79.7849 44.8127" fill="#008DCA"></path><path d="M156.973 233.046C163.858 238.194 172.733 240.658 181.892 239.142C197.21 236.647 208.295 223.856 209.338 208.98C209.401 208.096 209.432 207.212 209.401 206.327C209.401 205.412 209.338 204.496 209.243 203.548C209.18 202.822 209.116 202.064 208.99 201.306C207.316 191.01 200.968 182.609 192.504 177.871C192.504 177.871 192.441 177.871 192.409 177.871C191.841 177.966 191.272 178.029 190.704 178.092C189.819 178.219 188.935 178.313 188.051 178.408C187.166 178.503 186.282 178.566 185.429 178.629C180.25 178.914 175.133 178.566 170.206 177.682C165.911 183.051 160.7 187.725 154.762 191.452C156.91 195.968 158.489 200.832 159.342 206.012C160.858 215.392 159.91 224.614 156.973 233.015M190.735 216.371C194.051 213.212 195.978 209.17 197.115 205.38C197.526 211.981 194.746 218.171 189.977 222.277L187.514 218.803C188.651 218.108 189.725 217.318 190.704 216.371M187.166 224.33C185.461 225.372 183.566 226.161 181.545 226.667L178.323 221.866C180.502 221.645 182.492 221.14 184.387 220.413L187.166 224.361V224.33Z" fill="#008DCA"></path><path d="M142.13 33.0649C143.582 41.9081 149.078 49.0458 156.405 52.9937C161.079 51.0039 166.069 49.5196 171.312 48.6668C177.313 47.6878 183.219 47.593 188.967 48.2246C195.062 42.1291 198.284 33.286 196.768 24.127C194.304 9.0304 180.029 -1.23401 164.964 1.22945C149.899 3.69291 139.635 17.9999 142.098 33.0965" fill="#49DFEE"></path><path d="M60.3297 68.3108C59.4454 68.1213 58.5927 67.9319 57.7084 67.8055C56.8241 67.6792 55.9713 67.5844 55.087 67.4897C50.8233 67.0475 46.4649 67.1107 42.0118 67.8371C15.0401 72.2587 -3.27801 97.8092 1.112 124.781C5.53359 151.784 31.0209 170.134 57.9927 165.712C60.9299 165.238 63.7407 164.449 66.4568 163.501C64.5934 159.08 63.1722 154.374 62.3826 149.447C59.0664 129.202 66.1726 109.59 79.7216 96.1353C80.5428 95.3141 81.3955 94.493 82.2798 93.735C83.3536 92.7875 84.4274 91.8716 85.5644 91.0189C87.0172 89.8819 88.5332 88.8397 90.1123 87.829C82.943 77.912 72.3312 70.9006 60.2981 68.3108M58.1821 80.8808C49.6232 82.5863 40.2746 86.313 34.0528 93.2296L24.9571 89.1239C30.1682 84.3865 36.7374 81.1334 43.9699 79.9649C48.6441 79.2069 53.3815 79.3964 57.9294 80.407C58.4032 80.5018 58.8453 80.565 59.3191 80.6913C58.9401 80.7545 58.5612 80.8492 58.2138 80.9124M29.9787 99.104C28.6838 101.662 27.7363 104.536 27.2626 107.758L15.4822 102.736C16.6824 99.7989 18.1983 97.0827 20.0301 94.6193L29.9787 99.104Z" fill="#49DFEE"></path><path d="M56.3817 222.908C60.8032 249.911 86.2906 268.261 113.262 263.839C130.475 261.028 144.15 249.564 150.656 234.593C151.035 233.741 151.383 232.856 151.699 231.972C152.046 231.056 152.33 230.109 152.614 229.161C154.73 222.15 155.394 214.57 154.13 206.832C153.404 202.284 152.014 198.021 150.151 194.041C148.603 194.831 147.024 195.526 145.382 196.189C144.371 196.599 143.329 196.978 142.287 197.357C141.308 197.673 140.329 197.989 139.35 198.273C137.107 198.905 134.802 199.442 132.433 199.852C109.409 203.611 87.2381 193.883 73.9733 176.481C60.7085 187.346 53.4129 204.779 56.3817 222.876M68.5094 220.918C68.162 218.865 68.0041 216.749 68.0041 214.665L81.1742 214.981C81.0163 218.613 81.3636 221.866 82.0269 224.898L69.6465 225.656C69.1727 224.108 68.7621 222.529 68.5094 220.887M84.3008 231.846C89.2593 242.71 99.0816 248.9 106.693 252.185C92.3544 252.754 79.1529 244.889 72.5205 232.572L84.3008 231.846Z" fill="#9AEAEF"></path><path d="M187.04 53.3083C185.493 53.1819 183.945 53.1188 182.366 53.0872C178.987 53.0872 175.576 53.3083 172.165 53.8768C169.417 54.319 166.732 54.9822 164.143 55.7718C162.627 56.2455 161.142 56.7508 159.689 57.3193C158.552 57.793 157.416 58.2668 156.31 58.8037C146.519 63.4148 138.308 70.5525 132.339 79.2378C157.51 83.3435 178.45 103.114 182.808 129.676C185.05 143.509 182.461 156.995 176.302 168.459C175.828 169.343 175.323 170.228 174.786 171.112C174.407 171.712 174.06 172.312 173.681 172.912C177.723 173.481 181.892 173.607 186.093 173.323C186.882 173.26 187.672 173.197 188.461 173.102C188.588 173.102 188.682 173.07 188.809 173.07C189.725 172.976 190.672 172.849 191.588 172.691C191.588 172.691 191.651 172.691 191.683 172.691C192.251 172.597 192.788 172.47 193.357 172.375C205.39 170.038 215.938 164.195 224.118 156.11C224.782 155.447 225.445 154.752 226.076 154.057C226.708 153.363 227.308 152.668 227.908 151.973C235.804 142.53 240.794 130.718 241.805 118.053C241.868 117.106 241.931 116.126 241.963 115.179C241.994 114.137 241.994 113.126 241.963 112.084C241.899 109.273 241.647 106.431 241.205 103.588C240.194 97.3347 238.236 91.4603 235.488 86.0912C235.014 85.1753 234.541 84.2594 234.035 83.3751C233.562 82.5224 233.056 81.7012 232.519 80.8801C223.202 66.3204 207.948 56.3402 190.735 53.7504C189.504 53.5609 188.272 53.403 187.04 53.3083ZM229.077 105.578C229.614 108.862 229.551 114.453 229.235 119.569C225.003 105.23 217.928 96.2925 210.601 90.6707L215.844 79.7747C222.666 86.7229 227.435 95.6608 229.045 105.578M201.568 85.2385C196.199 82.8382 191.304 81.8592 188.082 81.5117L193.894 66.9521C198.757 68.2154 203.337 70.2998 207.474 72.9528L201.537 85.2701L201.568 85.2385Z" fill="#9AEAEF"></path><path d="M129.306 84.1656C128.359 84.0393 127.38 83.9761 126.401 83.913C125.453 83.8498 124.506 83.7867 123.527 83.7867C120.242 83.7235 116.926 83.913 113.547 84.4499C110.578 84.9236 107.704 85.7132 104.924 86.6607C102.366 87.5135 99.8713 88.4925 97.5026 89.6611C96.713 90.0401 95.9866 90.5138 95.2286 90.956C94.4706 91.3981 93.681 91.7771 92.923 92.2508C91.0912 93.4194 89.3542 94.6827 87.6803 96.0408C72.5521 108.263 64.1827 128.034 67.5305 148.563C68.2569 153.111 69.615 157.406 71.3204 161.449C71.6678 162.27 71.9837 163.059 72.3942 163.849C72.7732 164.639 73.2153 165.397 73.6259 166.186C74.1312 167.134 74.6366 168.113 75.2051 168.997C75.6788 169.755 76.1841 170.45 76.6894 171.176C77.1948 171.903 77.6685 172.629 78.2055 173.355C90.3017 189.242 110.546 198.116 131.549 194.674C134.928 194.105 138.181 193.221 141.308 192.116C142.508 191.673 143.677 191.2 144.845 190.694C145.793 190.284 146.772 189.873 147.688 189.431C148.161 189.178 148.635 188.894 149.109 188.642C149.393 188.484 149.709 188.294 149.993 188.136C150.751 187.694 151.541 187.315 152.267 186.841C156.847 183.936 160.921 180.43 164.426 176.419C164.584 176.261 164.711 176.072 164.837 175.882C165.311 175.314 165.753 174.745 166.195 174.177C166.7 173.513 167.269 172.913 167.743 172.218C167.837 172.092 167.901 171.997 167.964 171.871C168.595 170.955 169.195 170.008 169.796 169.06C176.712 157.943 179.839 144.426 177.565 130.529C173.459 105.484 153.246 87.0713 129.275 84.1341M118.789 96.2619C119.705 96.1671 120.653 96.0724 121.569 96.0724C122.485 96.0724 123.4 96.0724 124.316 96.1355C128.833 96.325 133.191 97.1462 137.297 98.6306L132.875 113.885C128.896 112.716 125.137 112.148 121.821 111.927C120.905 111.864 120.021 111.832 119.2 111.832C118.284 111.832 117.4 111.832 116.579 111.832C115.663 111.832 114.81 111.895 114.084 111.959L117.4 96.3882C117.873 96.325 118.347 96.325 118.821 96.2934M142.603 118.022L146.803 103.494C156.404 109.969 163.479 120.202 165.469 132.55C166.1 136.498 165.753 143.541 165.09 149.416C161.458 136.309 154.983 126.423 145.698 119.981C144.656 119.254 143.613 118.622 142.571 118.022" fill="#1EBBDF"></path></g></svg>