<svg xmlns="http://www.w3.org/2000/svg" width="168" height="245" viewBox="0 0 168 245" fill="none"><g opacity="0.2"><path d="M93.5705 41.2197C102.594 42.6846 109.391 49.628 111.178 58.0949C98.4338 60.7024 87.1836 68.1146 79.7128 78.6616C77.5741 77.5776 75.3769 76.6108 73.0624 75.7612C69.5174 71.1615 67.7596 65.1849 68.785 59.0325C70.7186 47.2843 81.8223 39.2568 93.5705 41.1904" fill="#008DCA"></path><path d="M21.9672 215.803C15.5804 220.578 7.34789 222.863 -1.14832 221.457C-15.3575 219.143 -25.6408 207.277 -26.6076 193.478C-26.6662 192.658 -26.6955 191.838 -26.6662 191.017C-26.6662 190.168 -26.6076 189.318 -26.5197 188.439C-26.4612 187.765 -26.4026 187.062 -26.2854 186.359C-24.7326 176.808 -18.8439 169.015 -10.9922 164.621C-10.9922 164.621 -10.9336 164.621 -10.9043 164.621C-10.377 164.708 -9.84958 164.767 -9.32223 164.826C-8.50191 164.943 -7.68159 165.031 -6.86127 165.119C-6.04095 165.206 -5.22062 165.265 -4.42959 165.324C0.375156 165.587 5.12129 165.265 9.69166 164.445C13.6761 169.425 18.5102 173.761 24.0181 177.218C22.0258 181.408 20.5609 185.92 19.7699 190.724C18.3637 199.426 19.2426 207.98 21.9672 215.774M-9.35155 200.334C-12.4278 197.404 -14.2149 193.654 -15.2696 190.138C-15.6504 196.262 -13.0723 202.004 -8.64841 205.812L-6.36322 202.59C-7.41792 201.945 -8.41401 201.213 -9.32223 200.334M-6.04095 207.717C-4.4589 208.684 -2.70107 209.416 -0.826042 209.885L2.16229 205.432C0.140779 205.227 -1.70494 204.758 -3.46278 204.084L-6.04095 207.746V207.717Z" fill="#008DCA"></path><path d="M35.7373 30.2927C34.3896 38.496 29.2918 45.1171 22.4948 48.7793C18.1588 46.9336 13.5299 45.5566 8.66653 44.7656C3.10005 43.8574 -2.37852 43.7694 -7.71063 44.3554C-13.365 38.701 -16.3533 30.4978 -14.9471 22.0016C-12.6619 7.99752 0.580518 -1.52409 14.5553 0.761097C28.5301 3.04628 38.0517 16.3179 35.7665 30.322" fill="#49DFEE"></path><path d="M111.618 62.9881C112.438 62.8123 113.229 62.6365 114.049 62.5193C114.869 62.4021 115.661 62.3142 116.481 62.2263C120.436 61.8162 124.479 61.8748 128.61 62.5486C153.63 66.6502 170.622 90.3517 166.55 115.372C162.448 140.421 138.805 157.442 113.785 153.341C111.061 152.901 108.453 152.169 105.934 151.29C107.662 147.188 108.981 142.823 109.713 138.253C112.789 119.473 106.197 101.28 93.629 88.799C92.8672 88.0372 92.0762 87.2755 91.2559 86.5724C90.2598 85.6934 89.2637 84.8438 88.209 84.0528C86.8614 82.9981 85.4551 82.0313 83.9902 81.0938C90.6407 71.8944 100.485 65.3904 111.647 62.9881M113.61 74.6484C121.549 76.2305 130.221 79.6875 135.993 86.1036L144.43 82.295C139.596 77.9004 133.503 74.8828 126.793 73.7988C122.457 73.0956 118.063 73.2714 113.844 74.2089C113.405 74.2968 112.995 74.3554 112.555 74.4726C112.907 74.5312 113.258 74.6191 113.58 74.6777M139.772 91.5529C140.973 93.926 141.852 96.592 142.292 99.5803L153.22 94.9221C152.106 92.1974 150.7 89.6779 149.001 87.3927L139.772 91.5529Z" fill="#49DFEE"></path><path d="M115.28 206.397C111.178 231.447 87.5351 248.468 62.5152 244.367C46.5482 241.759 33.8625 231.124 27.8273 217.237C27.4757 216.446 27.1535 215.626 26.8605 214.806C26.5382 213.956 26.2745 213.077 26.0109 212.198C24.0479 205.694 23.4327 198.663 24.6046 191.485C25.2784 187.266 26.5675 183.311 28.296 179.62C29.7316 180.352 31.1965 180.997 32.72 181.612C33.6575 181.993 34.6242 182.344 35.591 182.696C36.4992 182.989 37.4074 183.282 38.3157 183.546C40.3958 184.132 42.5345 184.63 44.7318 185.01C66.0895 188.497 86.6562 179.473 98.961 163.33C111.266 173.409 118.034 189.581 115.28 206.368M104.029 204.552C104.352 202.647 104.498 200.684 104.498 198.751L92.2812 199.044C92.4277 202.413 92.1055 205.431 91.4902 208.243L102.975 208.946C103.414 207.511 103.795 206.046 104.029 204.522M89.3808 214.689C84.7812 224.767 75.6697 230.509 68.6091 233.556C81.91 234.083 94.1562 226.788 100.309 215.362L89.3808 214.689Z" fill="#9AEAEF"></path><path d="M-5.92366 49.0708C-4.48809 48.9536 -3.05249 48.8951 -1.58763 48.8658C1.54718 48.8658 4.71127 49.0708 7.87537 49.5982C10.4242 50.0083 12.9145 50.6236 15.3169 51.356C16.7232 51.7955 18.1002 52.2642 19.4478 52.7916C20.5025 53.231 21.5572 53.6705 22.5826 54.1686C31.6647 58.446 39.282 65.0671 44.8192 73.1239C21.4693 76.9325 2.04523 95.2726 -1.99779 119.912C-4.0779 132.744 -1.67553 145.254 4.03744 155.889C4.4769 156.709 4.94569 157.529 5.44374 158.35C5.79531 158.906 6.1175 159.463 6.46907 160.02C2.71902 160.547 -1.14819 160.664 -5.04473 160.4C-5.77716 160.342 -6.50959 160.283 -7.24202 160.195C-7.35921 160.195 -7.44711 160.166 -7.56429 160.166C-8.41391 160.078 -9.2928 159.961 -10.1424 159.814C-10.1424 159.814 -10.2011 159.814 -10.2304 159.814C-10.7577 159.727 -11.2558 159.609 -11.7831 159.521C-22.9454 157.353 -32.7306 151.933 -40.3186 144.433C-40.9338 143.818 -41.5491 143.174 -42.1351 142.529C-42.721 141.885 -43.2776 141.24 -43.8343 140.595C-51.1586 131.836 -55.7876 120.878 -56.7251 109.13C-56.7837 108.251 -56.8423 107.343 -56.8716 106.464C-56.9009 105.497 -56.9009 104.56 -56.8716 103.593C-56.813 100.986 -56.5786 98.3488 -56.1684 95.7121C-55.2309 89.9112 -53.4145 84.4619 -50.8656 79.4814C-50.4262 78.6318 -49.9867 77.7821 -49.5179 76.9618C-49.0785 76.1708 -48.6097 75.4091 -48.1117 74.6474C-39.469 61.1413 -25.3184 51.8833 -9.35143 49.481C-8.20884 49.3052 -7.06625 49.1587 -5.92366 49.0708ZM-44.9183 97.5578C-45.4163 100.605 -45.3578 105.79 -45.0648 110.536C-41.139 97.2355 -34.5763 88.9444 -27.7794 83.7295L-32.6427 73.6219C-38.9709 80.0673 -43.3948 88.3584 -44.889 97.5578M-19.4004 78.6903C-14.4198 76.4638 -9.87879 75.5556 -6.89047 75.2333L-12.2812 61.7272C-16.7929 62.8991 -21.041 64.8327 -24.879 67.2937L-19.3711 78.7197L-19.4004 78.6903Z" fill="#9AEAEF"></path><path d="M47.6326 77.6961C48.5115 77.5789 49.4197 77.5203 50.3279 77.4617C51.2068 77.4031 52.0857 77.3445 52.9939 77.3445C56.0408 77.2859 59.1171 77.4617 62.2519 77.9597C65.0058 78.3992 67.6719 79.1316 70.2501 80.0106C72.6231 80.8016 74.9375 81.7098 77.1348 82.7938C77.8673 83.1454 78.5411 83.5848 79.2442 83.995C79.9474 84.4052 80.6798 84.7567 81.383 85.1961C83.0822 86.2801 84.6936 87.4521 86.2463 88.7118C100.28 100.05 108.044 118.39 104.938 137.433C104.264 141.652 103.004 145.636 101.422 149.386C101.1 150.148 100.807 150.881 100.426 151.613C100.075 152.345 99.6645 153.049 99.2836 153.781C98.8149 154.66 98.3461 155.568 97.8188 156.388C97.3793 157.092 96.9106 157.736 96.4418 158.41C95.9731 159.084 95.5336 159.758 95.0355 160.432C83.8147 175.168 65.0351 183.401 45.5524 180.207C42.4176 179.68 39.4 178.859 36.4996 177.834C35.3863 177.424 34.3023 176.984 33.2183 176.516C32.3394 176.135 31.4312 175.754 30.5815 175.344C30.1421 175.109 29.7026 174.846 29.2631 174.611C28.9995 174.465 28.7065 174.289 28.4428 174.143C27.7397 173.732 27.0072 173.381 26.3334 172.941C22.0853 170.246 18.306 166.994 15.054 163.273C14.9075 163.127 14.7903 162.951 14.6732 162.775C14.2337 162.248 13.8235 161.721 13.4133 161.193C12.9445 160.578 12.4172 160.021 11.9778 159.377C11.8899 159.26 11.8313 159.172 11.7727 159.055C11.1867 158.205 10.6301 157.326 10.0735 156.447C3.65736 146.134 0.756912 133.595 2.86631 120.704C6.67496 97.4717 25.4252 80.3914 47.6618 77.6668M57.3885 88.9169C56.5389 88.829 55.66 88.7411 54.8103 88.7411C53.9607 88.7411 53.1111 88.7411 52.2615 88.7997C48.072 88.9755 44.029 89.7372 40.2204 91.1142L44.322 105.265C48.0134 104.181 51.4998 103.653 54.576 103.448C55.4256 103.39 56.2459 103.36 57.0076 103.36C57.8573 103.36 58.6776 103.36 59.4394 103.36C60.289 103.36 61.0799 103.419 61.7538 103.478L58.6776 89.0341C58.2381 88.9755 57.7987 88.9755 57.3592 88.9462M35.2984 109.103L31.4019 95.626C22.4955 101.632 15.9329 111.124 14.0872 122.579C13.5012 126.242 13.8235 132.775 14.4387 138.224C17.8079 126.066 23.8139 116.896 32.4273 110.919C33.3941 110.245 34.3609 109.659 35.3277 109.103" fill="#1EBBDF"></path></g></svg>