<svg xmlns="http://www.w3.org/2000/svg" width="168" height="246" viewBox="0 0 168 246" fill="none"><g opacity="0.2"><path d="M73.9911 204.625C64.9675 203.161 58.1705 196.217 56.3834 187.75C69.1277 185.143 80.3779 177.731 87.8487 167.184C89.9874 168.268 92.1847 169.234 94.4991 170.084C98.0441 174.684 99.8019 180.66 98.7765 186.813C96.8429 198.561 85.7393 206.588 73.9911 204.655" fill="#008DCA"></path><path d="M145.594 30.0429C151.981 25.2674 160.214 22.9823 168.71 24.3885C182.919 26.703 193.202 38.5684 194.169 52.3674C194.228 53.1877 194.257 54.0081 194.228 54.8284C194.228 55.678 194.169 56.5276 194.081 57.4065C194.023 58.0804 193.964 58.7835 193.847 59.4866C192.294 69.0375 186.405 76.8306 178.554 81.2252C178.554 81.2252 178.495 81.2252 178.466 81.2252C177.938 81.1373 177.411 81.0787 176.884 81.0201C176.063 80.9029 175.243 80.815 174.423 80.7271C173.602 80.6393 172.782 80.5807 171.991 80.5221C167.186 80.2584 162.44 80.5807 157.87 81.401C153.885 76.4205 149.051 72.0845 143.543 68.6274C145.536 64.4379 147.001 59.9261 147.792 55.1213C149.198 46.4201 148.319 37.8653 145.594 30.0722M176.913 45.5119C179.989 48.4416 181.776 52.1916 182.831 55.7073C183.212 49.5842 180.634 43.8419 176.21 40.0333L173.925 43.2559C174.979 43.9005 175.976 44.6329 176.884 45.5119M173.602 38.1289C172.02 37.1621 170.263 36.4297 168.388 35.9609L165.399 40.4141C167.421 40.6192 169.266 41.088 171.024 41.7618L173.602 38.0996V38.1289Z" fill="#008DCA"></path><path d="M131.824 215.552C133.172 207.349 138.27 200.728 145.067 197.065C149.403 198.911 154.032 200.288 158.895 201.079C164.461 201.987 169.94 202.075 175.272 201.489C180.927 207.144 183.915 215.347 182.509 223.843C180.223 237.847 166.981 247.369 153.006 245.084C139.031 242.798 129.51 229.527 131.795 215.523" fill="#49DFEE"></path><path d="M55.944 182.857C55.1237 183.032 54.3327 183.208 53.5124 183.325C52.692 183.443 51.901 183.53 51.0806 183.618C47.1255 184.029 43.0825 183.97 38.9516 183.296C13.9318 179.194 -3.06068 155.493 1.01164 130.473C5.11326 105.424 28.7562 88.4023 53.776 92.5039C56.5007 92.9434 59.1081 93.6758 61.6277 94.5547C59.8991 98.6563 58.5807 103.022 57.8483 107.592C54.7721 126.372 61.364 144.565 73.9326 157.046C74.6943 157.807 75.4853 158.569 76.3056 159.272C77.3017 160.151 78.2978 161.001 79.3525 161.792C80.7002 162.847 82.1064 163.813 83.5713 164.751C76.9208 173.95 67.0769 180.454 55.9147 182.857M53.9518 171.196C46.0122 169.614 37.3402 166.157 31.5687 159.741L23.1311 163.55C27.9652 167.944 34.059 170.962 40.768 172.046C45.104 172.749 49.4986 172.573 53.7174 171.636C54.1568 171.548 54.567 171.489 55.0065 171.372C54.6549 171.314 54.3034 171.226 53.9811 171.167M27.7894 154.292C26.5882 151.919 25.7092 149.253 25.2698 146.264L14.3419 150.923C15.4552 153.647 16.8614 156.167 18.5607 158.452L27.7894 154.292Z" fill="#49DFEE"></path><path d="M52.2819 39.4473C56.3835 14.3981 80.0265 -2.62357 105.046 1.47805C121.013 4.0855 133.699 14.7204 139.734 28.6073C140.086 29.3983 140.408 30.2186 140.701 31.039C141.023 31.8886 141.287 32.7675 141.551 33.6464C143.514 40.1504 144.129 47.1817 142.957 54.3596C142.283 58.5784 140.994 62.5335 139.265 66.225C137.83 65.4925 136.365 64.848 134.842 64.2328C133.904 63.8519 132.937 63.5003 131.97 63.1488C131.062 62.8558 130.154 62.5628 129.246 62.2991C127.166 61.7132 125.027 61.2151 122.83 60.8343C101.472 57.3479 80.9054 66.3715 68.6005 82.5142C56.2957 72.436 49.528 56.2639 52.2819 39.4766M63.5321 41.293C63.2098 43.1973 63.0633 45.1603 63.0633 47.0939L75.2803 46.8009C75.1338 43.4317 75.456 40.4141 76.0713 37.6015L64.5868 36.8984C64.1473 38.334 63.7664 39.7989 63.5321 41.3223M78.1807 31.1562C82.7804 21.0779 91.8918 15.3356 98.9524 12.2887C85.6515 11.7614 73.4053 19.0564 67.2529 30.4823L78.1807 31.1562Z" fill="#9AEAEF"></path><path d="M173.485 196.774C172.05 196.891 170.614 196.95 169.149 196.979C166.014 196.979 162.85 196.774 159.686 196.247C157.137 195.836 154.647 195.221 152.245 194.489C150.838 194.049 149.461 193.58 148.114 193.053C147.059 192.614 146.004 192.174 144.979 191.676C135.897 187.399 128.28 180.778 122.742 172.721C146.092 168.912 165.516 150.572 169.559 125.933C171.639 113.101 169.237 100.591 163.524 89.9561C163.085 89.1358 162.616 88.3155 162.118 87.4951C161.766 86.9385 161.444 86.3818 161.092 85.8252C164.842 85.2978 168.71 85.1806 172.606 85.4443C173.339 85.5029 174.071 85.5615 174.804 85.6494C174.921 85.6494 175.009 85.6787 175.126 85.6787C175.975 85.7666 176.854 85.8838 177.704 86.0303C177.704 86.0303 177.763 86.0303 177.792 86.0303C178.319 86.1182 178.817 86.2353 179.345 86.3232C190.507 88.4912 200.292 93.9112 207.88 101.411C208.495 102.027 209.111 102.671 209.697 103.316C210.283 103.96 210.839 104.605 211.396 105.249C218.72 114.009 223.349 124.966 224.287 136.715C224.345 137.593 224.404 138.502 224.433 139.381C224.462 140.347 224.462 141.285 224.433 142.252C224.375 144.859 224.14 147.496 223.73 150.133C222.792 155.933 220.976 161.383 218.427 166.363C217.988 167.213 217.548 168.063 217.079 168.883C216.64 169.674 216.171 170.436 215.673 171.197C207.031 184.703 192.88 193.961 176.913 196.364C175.77 196.54 174.628 196.686 173.485 196.774ZM212.48 148.287C212.978 145.24 212.919 140.054 212.626 135.308C208.7 148.609 202.138 156.9 195.341 162.115L200.204 172.223C206.532 165.777 210.956 157.486 212.45 148.287M186.962 167.154C181.981 169.381 177.44 170.289 174.452 170.611L179.843 184.117C184.354 182.946 188.603 181.012 192.441 178.551L186.933 167.125L186.962 167.154Z" fill="#9AEAEF"></path><path d="M119.929 168.149C119.05 168.266 118.142 168.325 117.234 168.384C116.355 168.442 115.476 168.501 114.568 168.501C111.521 168.559 108.444 168.384 105.31 167.885C102.556 167.446 99.8896 166.714 97.3115 165.835C94.9384 165.044 92.624 164.135 90.4267 163.051C89.6943 162.7 89.0204 162.26 88.3173 161.85C87.6141 161.44 86.8817 161.089 86.1785 160.649C84.4793 159.565 82.8679 158.393 81.3152 157.133C67.2818 145.795 59.518 127.455 62.6235 108.412C63.2974 104.193 64.5572 100.209 66.1392 96.4588C66.4615 95.6971 66.7545 94.9646 67.1353 94.2322C67.4869 93.4998 67.897 92.7966 68.2779 92.0642C68.7466 91.1853 69.2154 90.2771 69.7427 89.4567C70.1822 88.7536 70.651 88.1091 71.1197 87.4352C71.5885 86.7614 72.028 86.0875 72.526 85.4137C83.7469 70.6772 102.526 62.4447 122.009 65.6381C125.144 66.1654 128.162 66.9857 131.062 68.0111C132.175 68.4213 133.259 68.8608 134.343 69.3295C135.222 69.7104 136.13 70.0912 136.98 70.5014C137.419 70.7358 137.859 70.9995 138.298 71.2338C138.562 71.3803 138.855 71.5561 139.119 71.7026C139.822 72.1127 140.554 72.4643 141.228 72.9038C145.476 75.5991 149.255 78.8511 152.507 82.5719C152.654 82.7184 152.771 82.8942 152.888 83.0699C153.328 83.5973 153.738 84.1246 154.148 84.652C154.617 85.2672 155.144 85.8239 155.584 86.4684C155.672 86.5856 155.73 86.6735 155.789 86.7907C156.375 87.6403 156.931 88.5192 157.488 89.3981C163.904 99.7108 166.805 112.25 164.695 125.141C160.887 148.374 142.136 165.454 119.9 168.178M110.173 156.928C111.023 157.016 111.902 157.104 112.751 157.104C113.601 157.104 114.45 157.104 115.3 157.045C119.49 156.87 123.533 156.108 127.341 154.731L123.24 140.58C119.548 141.664 116.062 142.192 112.986 142.397C112.136 142.455 111.316 142.485 110.554 142.485C109.704 142.485 108.884 142.485 108.122 142.485C107.273 142.485 106.482 142.426 105.808 142.368L108.884 156.811C109.323 156.87 109.763 156.87 110.202 156.899M132.263 136.743L136.16 150.219C145.066 144.213 151.629 134.721 153.474 123.266C154.06 119.604 153.738 113.07 153.123 107.621C149.754 119.779 143.748 128.949 135.134 134.926C134.167 135.6 133.201 136.186 132.234 136.743" fill="#1EBBDF"></path></g></svg>