<svg xmlns="http://www.w3.org/2000/svg" width="198" height="265" viewBox="0 0 198 265" fill="none"><g opacity="0.2"><path d="M118.215 220.517C127.943 218.937 135.27 211.452 137.196 202.325C123.458 199.514 111.33 191.524 103.276 180.154C100.971 181.322 98.6022 182.365 96.1072 183.281C92.2856 188.239 90.3907 194.682 91.4961 201.314C93.5806 213.979 105.55 222.633 118.215 220.548" fill="#008DCA"></path><path d="M41.0268 32.3144C34.1417 27.1664 25.267 24.7029 16.1079 26.2189C0.790283 28.7139 -10.2953 41.505 -11.3375 56.3805C-11.4007 57.2648 -11.4323 58.1491 -11.4007 59.0334C-11.4007 59.9493 -11.3375 60.8652 -11.2428 61.8127C-11.1796 62.5391 -11.1164 63.2971 -10.9901 64.0551C-9.31622 74.3511 -2.96807 82.7521 5.49612 87.4895C5.49612 87.4895 5.55928 87.4895 5.59086 87.4895C6.15935 87.3948 6.72787 87.3316 7.29636 87.2684C8.18068 87.1421 9.06499 87.0474 9.9493 86.9526C10.8336 86.8579 11.7179 86.7947 12.5707 86.7315C17.7503 86.4473 22.8666 86.7947 27.7936 87.679C32.0888 82.3099 37.3 77.6357 43.2376 73.9089C41.09 69.3926 39.5108 64.5288 38.6581 59.3492C37.1421 49.9692 38.0896 40.747 41.0268 32.3459M7.26475 48.9901C3.94855 52.1484 2.02204 56.191 0.885056 59.9809C0.47448 53.3801 3.25375 47.1899 8.02275 43.0841L10.4862 46.5582C9.34922 47.253 8.27543 48.0426 7.29636 48.9901M10.8336 41.0312C12.5391 39.989 14.4341 39.1994 16.4554 38.6941L19.6768 43.4947C17.4976 43.7157 15.5079 44.2211 13.6129 44.9475L10.8336 40.9996V41.0312Z" fill="#008DCA"></path><path d="M55.8705 232.296C54.4177 223.453 48.9222 216.315 41.595 212.367C36.9208 214.357 31.9307 215.841 26.6879 216.694C20.6872 217.673 14.7812 217.768 9.03316 217.136C2.93768 223.232 -0.283772 232.075 1.2322 241.234C3.69566 256.33 17.9711 266.595 33.0361 264.131C48.1011 261.668 58.3655 247.361 55.902 232.264" fill="#49DFEE"></path><path d="M137.67 197.05C138.555 197.24 139.407 197.429 140.292 197.555C141.176 197.682 142.029 197.776 142.913 197.871C147.177 198.313 151.535 198.25 155.988 197.524C182.96 193.102 201.278 167.552 196.888 140.58C192.466 113.577 166.979 95.2271 140.007 99.6487C137.07 100.122 134.259 100.912 131.543 101.859C133.407 106.281 134.828 110.987 135.617 115.914C138.934 136.158 131.827 155.771 118.278 169.226C117.457 170.047 116.604 170.868 115.72 171.626C114.646 172.573 113.573 173.489 112.436 174.342C110.983 175.479 109.467 176.521 107.888 177.532C115.057 187.449 125.669 194.46 137.702 197.05M139.818 184.48C148.377 182.775 157.725 179.048 163.947 172.131L173.043 176.237C167.832 180.974 161.263 184.227 154.03 185.396C149.356 186.154 144.618 185.964 140.071 184.954C139.597 184.859 139.155 184.796 138.681 184.67C139.06 184.606 139.439 184.512 139.786 184.448M168.021 166.257C169.316 163.699 170.264 160.825 170.737 157.603L182.518 162.625C181.318 165.562 179.802 168.278 177.97 170.742L168.021 166.257Z" fill="#49DFEE"></path><path d="M141.618 42.453C137.197 15.4497 111.709 -2.89987 84.7377 1.52172C67.5251 4.33259 53.8497 15.7971 47.3437 30.7674C46.9647 31.6201 46.6173 32.5044 46.3015 33.3887C45.9541 34.3046 45.6698 35.2521 45.3856 36.1996C43.2695 43.211 42.6062 50.7909 43.8696 58.5286C44.596 63.0766 45.9856 67.3403 47.849 71.3197C49.3966 70.5301 50.9757 69.8353 52.6181 69.1721C53.6287 68.7615 54.6709 68.3825 55.7131 68.0035C56.6922 67.6877 57.6712 67.3718 58.6503 67.0876C60.8927 66.4559 63.1982 65.919 65.5669 65.5084C88.5908 61.7501 110.762 71.4776 124.027 88.8797C137.291 78.0152 144.587 60.5815 141.618 42.4846M129.491 44.4427C129.838 46.4956 129.996 48.6117 129.996 50.6961L116.826 50.3803C116.984 46.7483 116.636 43.4952 115.973 40.4633L128.354 39.7053C128.827 41.2529 129.238 42.832 129.491 44.4743M113.699 33.5151C108.741 22.6506 98.9184 16.4604 91.307 13.1758C105.646 12.6073 118.847 20.4714 125.479 32.7887L113.699 33.5151Z" fill="#9AEAEF"></path><path d="M10.9598 212.053C12.5074 212.179 14.055 212.242 15.6341 212.274C19.0135 212.274 22.4244 212.053 25.8354 211.484C28.5831 211.042 31.2676 210.379 33.8574 209.589C35.3734 209.115 36.8578 208.61 38.3106 208.042C39.4476 207.568 40.5845 207.094 41.6899 206.557C51.4806 201.946 59.6921 194.808 65.6612 186.123C40.4897 182.017 19.5504 162.246 15.192 135.685C12.9496 121.852 15.5394 108.366 21.698 96.9017C22.1718 96.0173 22.6771 95.133 23.214 94.2487C23.593 93.6486 23.9404 93.0485 24.3194 92.4485C20.2767 91.88 16.1078 91.7537 11.9073 92.0379C11.1178 92.1011 10.3282 92.1642 9.53862 92.259C9.41229 92.259 9.31754 92.2906 9.19121 92.2906C8.27531 92.3853 7.32786 92.5117 6.41196 92.6696C6.41196 92.6696 6.34875 92.6696 6.31717 92.6696C5.74867 92.7643 5.21177 92.8907 4.64328 92.9854C-7.38977 95.3225 -17.9384 101.165 -26.1183 109.251C-26.7816 109.914 -27.4448 110.609 -28.0765 111.303C-28.7082 111.998 -29.3082 112.693 -29.9083 113.388C-37.804 122.831 -42.7941 134.643 -43.8047 147.308C-43.8679 148.255 -43.9311 149.234 -43.9626 150.182C-43.9942 151.224 -43.9942 152.235 -43.9626 153.277C-43.8995 156.088 -43.6468 158.93 -43.2046 161.773C-42.194 168.026 -40.2359 173.901 -37.4882 179.27C-37.0144 180.186 -36.5407 181.101 -36.0353 181.986C-35.5616 182.838 -35.0563 183.66 -34.5194 184.481C-25.2024 199.04 -9.94797 209.021 7.26466 211.61C8.49639 211.8 9.72811 211.958 10.9598 212.053ZM-31.0769 159.783C-31.6138 156.498 -31.5506 150.908 -31.2348 145.792C-27.0027 160.13 -19.9281 169.068 -12.6009 174.69L-17.8437 185.586C-24.6655 178.638 -29.4345 169.7 -31.0452 159.783M-3.56822 180.122C1.80086 182.523 6.69616 183.502 9.9176 183.849L4.10638 198.409C-0.757374 197.145 -5.33689 195.061 -9.47424 192.408L-3.53665 180.091L-3.56822 180.122Z" fill="#9AEAEF"></path><path d="M68.6936 181.195C69.6411 181.322 70.6201 181.385 71.5992 181.448C72.5467 181.511 73.4942 181.574 74.4732 181.574C77.7578 181.637 81.074 181.448 84.4534 180.911C87.4222 180.437 90.2962 179.648 93.0755 178.7C95.6337 177.847 98.1287 176.868 100.497 175.7C101.287 175.321 102.013 174.847 102.771 174.405C103.529 173.963 104.319 173.584 105.077 173.11C106.909 171.941 108.646 170.678 110.32 169.32C125.448 157.097 133.817 137.327 130.47 116.798C129.743 112.25 128.385 107.955 126.68 103.912C126.332 103.091 126.016 102.301 125.606 101.512C125.227 100.722 124.785 99.9642 124.374 99.1747C123.869 98.2272 123.363 97.2481 122.795 96.3638C122.321 95.6058 121.816 94.911 121.311 94.1846C120.805 93.4582 120.331 92.7318 119.795 92.0054C107.698 76.1192 87.4537 67.2445 66.4512 70.687C63.0718 71.2555 59.8188 72.1398 56.6921 73.2452C55.4919 73.6874 54.3234 74.1611 53.1548 74.6664C52.2073 75.077 51.2283 75.4876 50.3124 75.9297C49.8387 76.1824 49.3649 76.4666 48.8911 76.7193C48.6069 76.8772 48.2911 77.0667 48.0068 77.2246C47.2488 77.6668 46.4593 78.0458 45.7329 78.5195C41.1533 81.4251 37.0792 84.9308 33.5736 88.9419C33.4156 89.0998 33.2893 89.2893 33.163 89.4788C32.6892 90.0472 32.247 90.6157 31.8048 91.1842C31.2995 91.8475 30.731 92.4475 30.2573 93.1423C30.1626 93.2687 30.0994 93.3634 30.0362 93.4898C29.4045 94.4057 28.8045 95.3531 28.2044 96.3006C21.2878 107.418 18.1611 120.935 20.435 134.832C24.5408 159.877 44.7538 178.29 68.7251 181.227M79.2106 169.099C78.2947 169.194 77.3472 169.288 76.4313 169.288C75.5154 169.288 74.5995 169.288 73.6836 169.225C69.1673 169.036 64.8089 168.215 60.7032 166.73L65.1247 151.476C69.1042 152.644 72.8625 153.213 76.1787 153.434C77.0946 153.497 77.9789 153.529 78.8 153.529C79.7159 153.529 80.6003 153.529 81.4215 153.529C82.3374 153.529 83.19 153.465 83.9164 153.402L80.6003 168.973C80.1265 169.036 79.6528 169.036 79.179 169.067M55.3972 147.338L51.1967 161.867C41.5955 155.392 34.521 145.159 32.5313 132.81C31.8996 128.863 32.247 121.82 32.9102 115.945C36.5423 129.052 43.0168 138.937 52.3021 145.38C53.3444 146.107 54.3866 146.738 55.4288 147.338" fill="#1EBBDF"></path></g></svg>