<svg xmlns="http://www.w3.org/2000/svg" width="100" height="101" viewBox="0 0 100 101" fill="none"><path d="M21.685 55.4717C21.685 56.9353 21.6791 58.3606 21.685 59.7829C21.6998 63.085 23.4349 64.8319 26.731 64.8319C35.9349 64.8378 45.1388 64.8378 54.3397 64.8319C57.6299 64.8319 59.365 63.088 59.3975 59.78C59.4123 58.3577 59.3975 56.9324 59.3975 55.454H78.1918V69.4678H97.0038C97.0274 69.1727 97.0599 68.9248 97.0599 68.677C97.0599 64.224 97.1041 59.7682 97.051 55.3153C96.9241 44.8248 88.635 36.6095 78.1534 36.5682C72.3372 36.5446 66.521 36.5653 60.7048 36.5623C60.3093 36.5623 59.911 36.5623 59.4034 36.5623C59.4034 35.0633 59.4123 33.6763 59.4034 32.2865C59.3798 28.8516 57.6653 27.1342 54.2187 27.1224C51.2825 27.1106 48.3464 27.1224 45.3394 27.1224V12.9846C45.7437 12.9846 46.1303 12.9846 46.5198 12.9846C49.208 12.9846 51.8934 13.0112 54.5816 12.9758C58.0755 12.9315 60.091 10.2314 59.2027 6.8379C58.7513 5.11162 57.3053 3.86044 55.5112 3.65092C55.219 3.61551 54.9239 3.60076 54.6289 3.60076C45.242 3.60076 35.8552 3.57715 26.4684 3.60961C22.9745 3.62141 20.965 6.37755 21.8916 9.75929C22.4168 11.6774 23.9277 12.9079 26.0258 12.9522C28.8586 13.0141 31.6945 12.9787 34.5303 12.9846C34.9257 12.9846 35.3211 12.9846 35.7696 12.9846V27.1224C35.0968 27.1224 34.4506 27.1224 33.8014 27.1224C31.4082 27.1224 29.015 27.0988 26.6219 27.1283C23.4526 27.1666 21.7116 28.9283 21.6909 32.0828C21.682 33.517 21.6909 34.9511 21.6909 36.4738H12.2657V27.2168H2.92317V64.7464H12.2333V55.4717H21.6909H21.685Z" fill="#008CD0"></path><path d="M87.5835 74.3274C84.4526 77.4819 81.5372 80.7899 79.3151 84.6998C76.2462 90.097 80.3273 96.9756 86.3973 97.728C92.0512 98.4274 97.0176 94.1692 97.0176 88.5743C97.0176 87.5474 96.7077 86.4674 96.3182 85.4995C95.1024 82.4689 90.3161 76.4225 87.5835 74.3274Z" fill="#008CD0"></path></svg>