<svg xmlns="http://www.w3.org/2000/svg" width="100" height="101" viewBox="0 0 100 101" fill="none"><path d="M95.7041 67.5283C95.1901 69.7418 93.7317 71.2884 92.1333 72.7954C86.3184 78.2771 80.537 83.7923 74.7702 89.3241C69.812 94.0805 63.922 96.4045 57.0394 96.3816C45.3198 96.342 33.6003 96.3712 21.8828 96.3712H20.7733C20.7566 96.0169 20.7316 95.7292 20.7316 95.4437C20.7316 85.3263 20.7357 75.2111 20.7148 65.0938C20.7148 64.4414 20.8904 64.1121 21.4984 63.8286C23.8135 62.7468 26.0993 61.6255 28.6776 61.2544C32.6621 60.6813 36.4732 61.2128 39.9668 63.2137C42.7123 64.7832 45.5768 65.4877 48.734 65.4168C53.1343 65.3189 57.5388 65.3689 61.9391 65.4023C65.0105 65.4252 67.6307 67.7721 68.0172 70.7548C68.4142 73.8229 66.5943 76.6972 63.6441 77.5581C62.942 77.7623 62.1815 77.8394 61.4481 77.8415C56.1535 77.8645 50.8589 77.8436 45.5643 77.8603C43.4916 77.8665 42.1774 79.7966 42.9985 81.5954C43.4749 82.6396 44.3295 83.1857 45.4703 83.1878C51.1222 83.1982 56.7761 83.292 62.4238 83.1586C69.2124 82.9981 74.438 76.4867 73.2637 69.8294C73.153 69.1999 73.247 68.8164 73.8091 68.4287C77.3109 66.0255 80.8588 63.6785 84.2478 61.1252C89.1078 57.4651 94.9018 60.6375 95.5871 65.0917C95.5934 65.1375 95.6644 65.173 95.7041 65.2147V67.5283Z" fill="#008CD0"></path><path d="M55.5384 5.21338C56.3763 5.38221 57.2225 5.51352 58.052 5.72404C66.0712 7.75209 71.3909 12.719 73.4197 20.6937C75.4339 28.6037 73.1627 35.4778 67.1305 41.0096C65.342 42.65 63.9755 44.3862 64.0716 46.9916H56.253C56.253 46.7373 56.253 46.456 56.253 46.1725C56.253 41.1576 56.2384 36.1427 56.276 31.1278C56.2802 30.6901 56.5142 30.1607 56.8193 29.8355C58.0374 28.5349 59.3328 27.3072 60.5865 26.04C61.861 24.7498 61.9425 23.1282 60.8121 22.0131C59.6797 20.8979 58.0708 20.9959 56.7775 22.2778C55.7286 23.3178 54.6943 24.3746 53.5556 25.521C52.4022 24.3454 51.345 23.2261 50.2418 22.1548C48.6204 20.577 46.2175 21.1522 45.645 23.2386C45.3588 24.285 45.7015 25.1666 46.4432 25.9128C47.7637 27.2405 49.103 28.5474 50.4047 29.8939C50.645 30.144 50.8769 30.5359 50.879 30.8631C50.9062 36.1448 50.8978 41.4265 50.8937 46.7082C50.8937 46.7915 50.8602 46.8749 50.8331 47.0062H43.1398C43.0834 46.4768 43.0688 45.9474 42.9685 45.4346C42.6237 43.6567 41.5602 42.3457 40.2146 41.193C36.7128 38.1958 34.4875 34.4315 33.4992 29.9356C30.946 18.3259 39.2013 6.75995 51.0253 5.37804C51.2238 5.35511 51.416 5.26966 51.6103 5.21338C52.9204 5.21338 54.2284 5.21338 55.5384 5.21338Z" fill="#008CD0"></path><path d="M15.3165 96.3586C12.4101 96.3586 9.56011 96.4086 6.71223 96.3378C5.34366 96.3023 4.34074 95.1143 4.31149 93.7032C4.28223 92.2796 4.30313 90.856 4.30313 89.4324C4.30313 80.3551 4.30313 71.2758 4.30313 62.1986C4.30313 59.9871 5.29978 58.9866 7.50203 58.9845C9.19655 58.9845 10.8932 58.9699 12.5877 58.9887C14.2153 59.0075 15.3603 60.1122 15.3624 61.7254C15.3729 73.1475 15.3666 84.5676 15.3645 95.9897C15.3645 96.0751 15.3415 96.1627 15.3144 96.3607L15.3165 96.3586Z" fill="#008CD0"></path><path d="M43.0703 52.4315H63.954C64.8378 56.7065 61.9001 60.3812 57.6064 60.4041C54.9611 60.4187 52.318 60.4124 49.6728 60.4041C45.7385 60.3937 43.0932 57.7486 43.0703 53.8114C43.0682 53.3486 43.0703 52.888 43.0703 52.4294V52.4315Z" fill="#008CD0"></path><path d="M22.3419 42.594C21.0172 42.6044 19.9829 41.8541 19.6257 40.7431C19.2642 39.6197 19.6089 38.4045 20.6265 37.773C22.2876 36.7433 23.9779 35.7553 25.708 34.8466C26.8906 34.2254 28.3615 34.7298 29.0615 35.8408C29.7656 36.9622 29.611 38.5463 28.4973 39.2737C26.7422 40.4201 24.8764 41.3997 23.0419 42.4273C22.7953 42.5648 22.4714 42.5648 22.3419 42.594Z" fill="#008CD0"></path><path d="M87.6626 39.8013C87.6355 41.8939 85.6025 43.2091 83.8599 42.3212C82.1466 41.4479 80.4855 40.4641 78.8536 39.4428C77.6376 38.682 77.3388 37.1292 78.045 35.9161C78.7241 34.7488 80.2139 34.2069 81.4403 34.8468C83.1975 35.7639 84.9067 36.7811 86.5928 37.8232C87.3409 38.286 87.6376 39.0822 87.6605 39.7992L87.6626 39.8013Z" fill="#008CD0"></path><path d="M22.2211 8.69189C22.6891 8.86073 23.1885 8.97119 23.6189 9.20881C25.0962 10.0259 26.5567 10.8742 28.0067 11.7392C29.4317 12.5896 29.8726 14.1507 29.0995 15.468C28.3348 16.7728 26.7489 17.1418 25.3009 16.3268C23.8028 15.4847 22.3089 14.6364 20.8337 13.7547C19.7013 13.0773 19.2521 11.8934 19.6031 10.7074C19.9478 9.54647 20.9904 8.7711 22.219 8.69189H22.2211Z" fill="#008CD0"></path><path d="M84.7785 8.78379C86.0907 8.7692 87.1145 9.47787 87.4927 10.5325C87.8876 11.6393 87.5972 12.9108 86.6005 13.5402C84.8997 14.6157 83.1571 15.635 81.3686 16.5542C80.1755 17.167 78.7171 16.6 78.0506 15.4682C77.3757 14.3239 77.5826 12.7753 78.7046 12.0478C80.4179 10.9411 82.2253 9.97603 84.0075 8.97972C84.2792 8.82756 84.6323 8.81922 84.7785 8.78379Z" fill="#008CD0"></path><path d="M22.3335 23.0201C23.2236 23.0201 24.1137 22.9993 25.0038 23.0243C26.5228 23.066 27.6741 24.2144 27.6866 25.6672C27.6992 27.12 26.5562 28.3185 25.0477 28.3497C23.2382 28.3872 21.4288 28.3872 19.6194 28.3497C18.1171 28.3185 16.97 27.1137 16.9825 25.6672C16.9951 24.2186 18.1505 23.066 19.6653 23.0243C20.5554 22.9993 21.4455 23.0201 22.3356 23.0201H22.3335Z" fill="#008CD0"></path><path d="M84.903 23.02C85.7638 23.02 86.6247 23.0013 87.4834 23.0242C89.0024 23.0659 90.1537 24.2144 90.1642 25.6671C90.1767 27.1199 89.0338 28.3184 87.5252 28.3497C85.7158 28.3872 83.9063 28.3872 82.0969 28.3497C80.5946 28.3184 79.4475 27.1137 79.4601 25.6671C79.4726 24.2185 80.628 23.0659 82.1429 23.0263C83.0622 23.0013 83.9816 23.0221 84.9009 23.0221L84.903 23.02Z" fill="#008CD0"></path></svg>