<svg xmlns="http://www.w3.org/2000/svg" width="100" height="100" viewBox="0 0 100 100" fill="none"><path d="M20.7459 97.1386C18.5395 96.5606 16.316 96.0368 14.1317 95.3851C12.9966 95.0458 11.9622 94.3449 10.8197 94.0498C8.93519 93.5628 7.00155 93.2702 4.98438 92.8743V89.001C6.7706 89.2371 8.57893 89.3108 10.2964 89.7461C12.1219 90.2085 13.8786 90.9659 15.6329 91.6766C20.5272 93.6637 25.4559 93.7891 30.2667 91.625C34.4484 89.7437 38.7187 88.819 43.2862 89.2174C45.8193 89.4387 48.2223 90.0929 50.5122 91.1725C56.1558 93.8284 61.7749 93.7866 67.4506 91.2167C73.8313 88.3247 80.2637 88.3517 86.6543 91.2192C89.2022 92.3627 91.8041 93.162 94.6223 93.1153C94.7377 93.1153 94.8532 93.1521 95.0473 93.189V97.1435H92.841C89.8803 96.7647 87.1137 95.7934 84.3767 94.6178C79.4725 92.5128 74.5242 92.6037 69.5783 94.6301C67.6913 95.4048 65.7479 96.0516 63.8019 96.6738C62.9715 96.9394 62.0747 96.9935 61.2074 97.1435H56.7946C53.6079 96.7647 50.6841 95.5745 47.7284 94.3891C43.1363 92.5496 38.4779 92.648 33.8735 94.5023C32.3158 95.1294 30.7753 95.8204 29.1758 96.3172C27.876 96.7205 26.5001 96.8754 25.1586 97.1435H20.7459V97.1386Z" fill="#008CD0"></path><path d="M69.2239 32.6943C68.8455 42.5336 62.2633 50.0294 52.853 51.6106C42.7893 53.3026 32.6985 45.9618 31.013 35.8814C30.2316 31.2064 31.6002 27.1044 33.755 23.1254C37.1652 16.8323 41.6271 11.3039 46.3199 5.94773C47.0275 5.1411 47.7376 4.33448 48.4919 3.57212C49.3961 2.65974 50.5779 2.59334 51.4231 3.52539C57.4918 10.2096 63.2829 17.1028 67.2558 25.3092C68.4254 27.7217 69.2583 30.2498 69.2214 32.6943H69.2239ZM49.9784 7.65689C47.4698 10.7678 45.0865 13.6082 42.8335 16.5495C40.1284 20.0809 37.691 23.7919 35.8851 27.8889C34.5461 30.9285 34.4748 33.9903 35.4576 37.1283C38.1136 45.6077 47.4379 49.9802 55.7326 46.6946C62.3959 44.0534 68.4131 35.0109 63.2117 26.1503C61.2928 22.8795 59.2756 19.6481 57.0692 16.5667C54.9169 13.559 52.4697 10.7654 49.9784 7.65935V7.65689Z" fill="#008CD0"></path><path d="M4.95461 62.1439V58.3124C6.96687 58.1772 8.93737 58.3862 10.8317 58.9764C12.5196 59.5027 14.1535 60.2134 15.7997 60.8676C20.5097 62.7366 25.2419 62.7907 29.9396 60.9044C32.5833 59.8421 35.1705 58.6543 38.0599 58.396C42.1778 58.0247 46.2244 58.2534 50.0082 60.088C53.4602 61.7603 57.0474 62.471 60.8705 62.1808C63.3668 61.9914 65.6321 61.1307 67.8753 60.1273C72.863 57.8968 78.0153 57.7124 83.2364 59.0576C84.7056 59.4363 86.1159 60.0855 87.514 60.7003C89.6466 61.6373 91.8481 62.1931 94.1822 62.2078C94.45 62.2078 94.7178 62.2546 95.0176 62.2841V66.3566C93.3272 66.1524 91.6417 66.1008 90.0397 65.7098C88.2977 65.2868 86.5901 64.6449 84.939 63.9318C79.6737 61.6594 74.4232 61.5684 69.1898 63.9416C66.0228 65.3778 62.7574 66.2262 59.2563 66.2533C55.5978 66.2803 52.1752 65.4688 48.8583 63.9588C43.7011 61.6102 38.4997 61.6447 33.2786 63.8408C31.5932 64.549 29.8757 65.2769 28.1018 65.6729C23.4237 66.7131 18.7726 66.5189 14.3255 64.5761C11.414 63.3022 8.48774 62.1832 5.24699 62.2374C5.16099 62.2374 5.075 62.1857 4.95215 62.1464L4.95461 62.1439Z" fill="#008CD0"></path><path d="M95.008 77.7253V81.6748C92.1259 81.7166 89.4036 81.1953 86.7427 80.1821C84.5806 79.3582 82.4184 78.3967 80.1678 77.9663C76.6642 77.2974 73.1335 77.563 69.8313 79.1074C66.3744 80.7206 62.8093 81.756 58.9494 81.7043C55.7209 81.6601 52.5981 81.1584 49.6915 79.7271C45.4508 77.6417 41.0356 77.1572 36.468 78.1999C35.0799 78.5172 33.7433 79.1099 32.4288 79.6804C26.1315 82.4077 19.8319 82.4692 13.5567 79.6878C10.8344 78.4828 8.06294 77.6171 4.98926 77.7032V73.7512C7.00644 73.6356 9.00396 73.8397 10.9278 74.4472C12.5273 74.9513 14.085 75.603 15.6403 76.2375C20.5296 78.2368 25.419 78.2442 30.2838 76.208C32.7162 75.1898 35.1265 74.1422 37.785 73.8717C42.0233 73.4413 46.1952 73.6553 50.0871 75.5661C53.9887 77.4818 58.0673 78.168 62.3105 77.3982C64.1508 77.0638 65.9542 76.3629 67.6815 75.6153C72.8116 73.3897 78.0548 73.1339 83.3988 74.5406C84.7796 74.9046 86.099 75.5218 87.411 76.1047C89.6247 77.0835 91.9146 77.6688 94.3446 77.6589C94.551 77.6589 94.7574 77.7007 95.0055 77.7278L95.008 77.7253Z" fill="#008CD0"></path><path d="M49.9778 7.65651C52.4692 10.7625 54.9188 13.5562 57.0686 16.5638C59.2725 19.6452 61.2897 22.8767 63.2111 26.1474C68.4125 35.008 62.3978 44.0531 55.732 46.6918C47.4348 49.9798 38.113 45.6073 35.4571 37.1254C34.4743 33.9874 34.5455 30.9257 35.8846 27.8861C37.6904 23.789 40.1278 20.0781 42.8329 16.5466C45.0859 13.6054 47.4717 10.765 49.9778 7.65405V7.65651ZM48.4225 15.4449C45 19.8444 41.6216 24.1333 39.4472 29.1993C38.9853 30.274 38.6118 31.4962 38.6216 32.6447C38.6634 37.2139 40.8477 40.5757 44.8402 42.7374C46.4078 43.5858 48.1031 44.0531 49.9237 43.9375V40.0273C49.3537 39.9412 48.8328 39.9019 48.3316 39.7814C43.6118 38.6477 41.4226 33.9973 43.6118 29.6715C45.5724 25.7982 48.1056 22.2987 50.8009 18.9099C51.0392 18.6099 51.2726 18.3025 51.5232 17.9779C50.4667 17.1147 49.4962 16.3228 48.4225 15.4424V15.4449Z" fill="#008CD0"></path></svg>