<svg xmlns="http://www.w3.org/2000/svg" width="100" height="101" viewBox="0 0 100 101" fill="none"><path d="M65.6309 1.71515C66.6368 1.98297 67.6708 2.17682 68.6461 2.53392C74.0552 4.50814 79.3396 10.7675 75.7997 19.4628C74.0221 23.827 71.2819 27.5484 68.2132 31.0505C62.8041 37.2206 56.5495 42.4699 50.1702 47.5789C50.1243 47.6146 50.0556 47.6222 49.8646 47.6911C47.0327 45.3037 44.104 42.9162 41.2696 40.4242C36.4386 36.1799 31.8597 31.6831 28.1008 26.4261C25.9642 23.4367 24.1433 20.2764 23.3411 16.6392C21.7648 9.48706 26.746 3.89343 31.982 2.31711C32.7638 2.07735 33.5711 1.91155 34.3682 1.71515C35.3843 1.71515 36.4004 1.71515 37.4191 1.71515C37.5006 1.76106 37.577 1.83248 37.6635 1.84523C42.3239 2.56963 45.7288 5.17132 48.3111 8.99478C49.4316 10.6553 50.5776 10.6629 51.688 8.98968C53.0963 6.87007 54.7694 4.96471 57.0334 3.8067C58.783 2.91652 60.7235 2.39873 62.58 1.71515C63.5961 1.71515 64.6122 1.71515 65.6309 1.71515Z" fill="#008CD0"></path><path d="M1.19981 22.909C1.28131 22.7407 1.36789 22.5774 1.44174 22.4065C2.11915 20.8736 3.66752 20.0012 5.21079 20.2844C6.88649 20.593 8.04522 21.9627 8.0605 23.7252C8.08342 26.5565 8.06814 29.3877 8.06814 32.219C8.06814 36.2899 8.08597 40.3633 8.05796 44.4342C8.04777 45.7631 7.96373 47.0945 7.82621 48.4183C7.58937 50.7063 8.14964 52.7596 9.75148 54.3869C15.0816 59.7994 20.4627 65.161 25.8362 70.5327C26.6307 71.326 27.6137 71.3209 28.2809 70.6067C28.9329 69.9103 28.8667 68.9742 28.0517 68.1555C22.8922 62.975 17.7302 57.7997 12.5528 52.6371C11.5825 51.6679 10.9586 50.5762 11.0324 49.1759C11.1241 47.4644 11.9569 46.1992 13.5205 45.5259C15.0714 44.8576 16.5893 45.0489 17.888 46.1661C18.7794 46.9313 19.5867 47.7909 20.4245 48.6173C26.0144 54.1293 31.5967 59.649 37.1968 65.1508C37.6374 65.5844 37.8284 66.0129 37.8309 66.6378C37.8564 76.1187 37.9073 85.597 37.9481 95.0779C37.9608 98.0647 36.5678 99.4727 33.606 99.4727C30.7156 99.4727 27.8251 99.4803 24.9346 99.4727C22.523 99.465 21.0281 97.9576 21.0179 95.5319C21.0001 91.0784 20.9797 86.6249 20.9899 82.1714C20.9899 81.3195 20.7378 80.6563 20.1266 80.0493C14.0273 73.9659 7.94845 67.8621 1.8594 61.7711C1.6684 61.5798 1.41882 61.4497 1.19727 61.2916C1.19727 48.4999 1.19727 35.7083 1.19727 22.9141L1.19981 22.909Z" fill="#008CD0"></path><path d="M98.7996 42.0929C98.7996 48.138 98.8149 54.1831 98.7716 60.2282C98.7691 60.7256 98.5093 61.3429 98.1604 61.6974C92.1249 67.7986 86.0613 73.8769 79.9824 79.9348C79.2999 80.6158 78.9943 81.3325 78.9994 82.2941C79.0223 86.6532 78.9943 91.0124 78.9816 95.3689C78.9739 98.0267 77.5172 99.4678 74.8382 99.4704C71.9146 99.473 68.9936 99.4755 66.07 99.4704C63.5514 99.4653 62.0412 97.9604 62.0489 95.4225C62.0845 85.7835 62.1303 76.1419 62.1991 66.5029C62.2017 66.1101 62.3774 65.6153 62.6473 65.3449C68.9859 59.0524 75.3449 52.7777 81.7141 46.5132C83.2625 44.9905 85.3457 44.738 87.0239 45.7965C89.1656 47.1509 89.6368 50.0842 87.9865 52.0278C87.3906 52.7292 86.7107 53.3567 86.0587 54.0097C81.4773 58.6009 76.8959 63.1896 72.3144 67.7782C72.0674 68.0257 71.8076 68.2654 71.6014 68.546C71.1226 69.1888 71.1888 70.0943 71.7516 70.635C72.3552 71.2115 73.0428 71.2778 73.7533 70.8544C73.9952 70.7115 74.1989 70.4998 74.4001 70.2983C79.5444 65.1485 84.6861 59.9936 89.8329 54.8438C91.8829 52.793 92.6316 50.3673 92.0052 47.5233C91.944 47.2478 91.9339 46.9545 91.9339 46.6714C91.9313 39.0678 91.9237 31.4643 91.9339 23.8607C91.939 21.2922 94.2233 19.6138 96.5255 20.4479C97.9516 20.9631 98.7945 22.2461 98.7945 23.9576C98.7996 30.0027 98.7945 36.0478 98.7945 42.0929H98.7996Z" fill="#008CD0"></path><path d="M18.0647 42.4448C15.8211 41.6337 13.6055 41.7332 11.3848 42.9269C11.3543 42.7024 11.3212 42.5621 11.3186 42.4244C11.3161 38.7055 11.3084 34.9866 11.3186 31.2677C11.3212 29.847 11.9298 28.7426 13.2006 28.082C14.4001 27.457 15.5996 27.5591 16.7124 28.3192C17.5707 28.9033 18.1386 29.7399 18.1513 30.778C18.192 34.5913 18.1691 38.4045 18.1666 42.2178C18.1666 42.2739 18.1156 42.33 18.0622 42.4423L18.0647 42.4448Z" fill="#008CD0"></path><path d="M88.6643 42.9628C86.3825 41.7079 84.1644 41.662 81.8138 42.4655C81.8138 40.4198 81.8138 38.4864 81.8138 36.553C81.8138 34.742 81.7934 32.931 81.8214 31.1226C81.852 29.2325 83.2603 27.7761 85.0837 27.6945C86.8944 27.6129 88.5904 28.9647 88.6337 30.8191C88.728 34.8109 88.6618 38.8052 88.6618 42.9628H88.6643Z" fill="#008CD0"></path></svg>