<svg xmlns="http://www.w3.org/2000/svg" width="144" height="63" viewBox="0 0 144 63" fill="none"><path fill-rule="evenodd" clip-rule="evenodd" d="M6.76413 36.1597H9.91669L16.5768 51.8082H13.0007L11.5807 48.323H5.01258L3.5915 51.8082H0.104004L6.76413 36.1597ZM10.3592 45.3047L8.29722 40.2641L6.23247 45.3047H10.3592Z" fill="white"></path><path fill-rule="evenodd" clip-rule="evenodd" d="M18.9771 36.2686H30.6968V39.3086H22.372V42.4611H29.6987V45.5039H22.372V48.7662H30.8088V51.8046H18.9771V36.2686Z" fill="white"></path><path fill-rule="evenodd" clip-rule="evenodd" d="M35.1782 36.2686H42.2808C44.2559 36.2686 45.7889 36.8225 46.8093 37.844C47.2576 38.317 47.6065 38.875 47.8355 39.4851C48.0644 40.0952 48.1688 40.745 48.1424 41.3961V41.4402C48.1923 42.4972 47.8934 43.5414 47.2914 44.4117C46.6895 45.2821 45.8181 45.9304 44.8115 46.2568L48.6088 51.8034H44.6142L41.2844 46.8313H38.5972V51.8034H35.1782V36.2686ZM42.0596 43.8153C43.7248 43.8153 44.6788 42.9276 44.6788 41.6174V41.5733C44.6788 40.1077 43.6557 39.3542 41.9916 39.3542H38.5949V43.8153H42.0596Z" fill="white"></path><path fill-rule="evenodd" clip-rule="evenodd" d="M50.9868 44.0825V44.0385C50.9868 39.6203 54.4704 36.0024 59.2659 36.0024C64.0613 36.0024 67.502 39.5758 67.502 43.9945V44.0385C67.502 48.4567 64.0167 52.0734 59.2218 52.0734C54.4269 52.0734 50.9857 48.5001 50.9874 44.0831M63.9281 44.0831V44.0391C63.9499 43.4068 63.8444 42.7766 63.6179 42.1859C63.3913 41.5952 63.0483 41.056 62.6093 40.6005C62.1703 40.1449 61.6442 39.7823 61.0623 39.5341C60.4804 39.2858 59.8545 39.1571 59.2218 39.1556C58.5938 39.1531 57.9719 39.2779 57.3935 39.5225C56.8151 39.7671 56.2922 40.1264 55.8566 40.5787C55.4209 41.0311 55.0815 41.567 54.8587 42.1542C54.636 42.7413 54.5346 43.3676 54.5607 43.995V44.0391C54.5387 44.6713 54.6441 45.3015 54.8705 45.8922C55.0969 46.4829 55.4398 47.022 55.8787 47.4776C56.3177 47.9331 56.8437 48.2958 57.4255 48.544C58.0074 48.7923 58.6333 48.921 59.2659 48.9225C59.8939 48.9251 60.516 48.8004 61.0945 48.5558C61.673 48.3112 62.1959 47.9519 62.6317 47.4996C63.0674 47.0473 63.407 46.5113 63.6298 45.9241C63.8526 45.3369 63.9541 44.7106 63.9281 44.0831Z" fill="white"></path><path fill-rule="evenodd" clip-rule="evenodd" d="M70.9829 36.2686H74.1355L81.4164 45.8344V36.2686H84.7902V51.8046H81.8834L74.3567 41.9272V51.8046H70.9829V36.2686Z" fill="white"></path><path fill-rule="evenodd" clip-rule="evenodd" d="M89.856 36.2686H101.577V39.3086H93.2526V42.4611H100.578V45.5039H93.2526V48.7662H101.688V51.8046H89.856V36.2686Z" fill="white"></path><path fill-rule="evenodd" clip-rule="evenodd" d="M106.059 36.2686H113.164C115.139 36.2686 116.671 36.8225 117.692 37.844C118.14 38.3173 118.488 38.8754 118.717 39.4854C118.946 40.0955 119.05 40.7452 119.024 41.3961V41.4402C119.073 42.4971 118.775 43.5411 118.173 44.4114C117.571 45.2818 116.7 45.9302 115.694 46.2568L119.49 51.8057H115.494L112.164 46.8336H109.475V51.8034H106.057L106.059 36.2686ZM112.941 43.8153C114.606 43.8153 115.56 42.9276 115.56 41.6174V41.5733C115.56 40.1077 114.54 39.3542 112.876 39.3542H109.476V43.8153H112.941Z" fill="white"></path><path fill-rule="evenodd" clip-rule="evenodd" d="M121.42 44.0825V44.0385C121.42 39.6203 124.906 36.0024 129.699 36.0024C134.493 36.0024 137.936 39.5758 137.936 43.9945V44.0385C137.936 48.4567 134.45 52.0734 129.655 52.0734C124.861 52.0734 121.42 48.499 121.42 44.0825ZM134.361 44.0825V44.0385C134.383 43.4062 134.277 42.776 134.051 42.1853C133.824 41.5946 133.481 41.0555 133.042 40.5999C132.603 40.1444 132.077 39.7817 131.495 39.5335C130.913 39.2853 130.288 39.1566 129.655 39.155C129.027 39.1527 128.405 39.2776 127.827 39.5223C127.248 39.7669 126.726 40.1262 126.29 40.5785C125.854 41.0308 125.515 41.5667 125.292 42.1538C125.069 42.7409 124.968 43.3671 124.994 43.9945V44.0385C124.972 44.6707 125.077 45.3008 125.304 45.8914C125.53 46.4821 125.873 47.0211 126.312 47.4767C126.751 47.9322 127.277 48.2949 127.859 48.5432C128.441 48.7915 129.066 48.9203 129.699 48.922C130.327 48.9246 130.949 48.7998 131.528 48.5552C132.106 48.3107 132.629 47.9514 133.065 47.499C133.5 47.0467 133.84 46.5108 134.063 45.9236C134.286 45.3363 134.387 44.7101 134.361 44.0825Z" fill="white"></path><path d="M45.6788 56.9819H44.9009V62.7047H45.6788V56.9819Z" fill="white"></path><path d="M48.9171 58.5327H48.1392V62.7057H48.9171V58.5327Z" fill="white"></path><path fill-rule="evenodd" clip-rule="evenodd" d="M48.5313 57.0285C48.4321 57.0285 48.3352 57.0579 48.2527 57.113C48.1702 57.1681 48.1059 57.2464 48.068 57.3381C48.03 57.4297 48.0201 57.5306 48.0394 57.6278C48.0588 57.7251 48.1066 57.8145 48.1767 57.8847C48.2468 57.9548 48.3362 58.0026 48.4335 58.0219C48.5308 58.0413 48.6316 58.0313 48.7233 57.9934C48.8149 57.9554 48.8933 57.8911 48.9484 57.8086C49.0035 57.7262 49.0329 57.6292 49.0329 57.53C49.0344 57.4637 49.0225 57.3978 48.9978 57.3363C48.9732 57.2747 48.9363 57.2188 48.8894 57.172C48.8425 57.1251 48.7866 57.0882 48.7251 57.0635C48.6635 57.0389 48.5976 57.0269 48.5313 57.0285Z" fill="white"></path><path fill-rule="evenodd" clip-rule="evenodd" d="M53.0942 57.7071C53.2653 57.7116 53.4309 57.7682 53.569 57.8692L53.7362 57.9657L54.1319 57.3733L53.9775 57.2618C53.7301 57.0681 53.4252 56.9624 53.111 56.9614C52.2566 56.9614 51.7846 57.4897 51.7846 58.4488V58.5803H51.0161V59.3121H51.7852V62.707H52.5548V59.3121H53.7914V58.5803H52.5537V58.4488C52.5537 57.7946 52.8435 57.7099 53.0954 57.7099" fill="white"></path><path fill-rule="evenodd" clip-rule="evenodd" d="M57.9787 58.4866C57.698 58.4822 57.4193 58.5347 57.1594 58.641C56.8995 58.7473 56.6639 58.9052 56.4668 59.1051C56.2697 59.305 56.1151 59.5428 56.0124 59.8041C55.9097 60.0654 55.8611 60.3448 55.8694 60.6255C55.8579 60.9064 55.9044 61.1868 56.006 61.449C56.1075 61.7112 56.262 61.9497 56.4597 62.1497C56.6574 62.3497 56.8941 62.5069 57.1551 62.6115C57.4162 62.7161 57.6959 62.7658 57.977 62.7576C58.3154 62.7664 58.6514 62.6988 58.9601 62.56C59.2689 62.4212 59.5423 62.2146 59.7603 61.9557L59.8796 61.7991L59.2961 61.3338L59.1702 61.5009C59.0179 61.6625 58.8329 61.7898 58.6275 61.8741C58.4222 61.9585 58.2012 61.9981 57.9793 61.9902C57.6832 62.0022 57.3923 61.9105 57.1567 61.7308C56.9212 61.5511 56.7558 61.2948 56.6891 61.0061H60.0172L60.0345 60.8222C60.0812 60.5219 60.0636 60.2151 59.9827 59.9221C59.9018 59.6292 59.7595 59.3568 59.5653 59.123C59.3605 58.9118 59.1136 58.7462 58.8405 58.6369C58.5674 58.5276 58.2743 58.4772 57.9804 58.4888M56.6902 60.2721C56.7478 59.9748 56.9088 59.7075 57.1447 59.5176C57.3805 59.3277 57.676 59.2274 57.9787 59.2345C58.1328 59.2147 58.2894 59.226 58.4391 59.2678C58.5888 59.3096 58.7286 59.381 58.8502 59.4777C58.9718 59.5745 59.0728 59.6946 59.1472 59.8311C59.2216 59.9675 59.2679 60.1175 59.2833 60.2721H56.6902Z" fill="white"></path><path fill-rule="evenodd" clip-rule="evenodd" d="M62.7716 60.2267C62.6724 60.2267 62.5754 60.2562 62.4929 60.3113C62.4104 60.3664 62.3462 60.4447 62.3082 60.5364C62.2702 60.628 62.2603 60.7289 62.2797 60.8261C62.299 60.9234 62.3468 61.0128 62.4169 61.083C62.4871 61.1531 62.5764 61.2009 62.6737 61.2202C62.771 61.2396 62.8719 61.2296 62.9635 61.1917C63.0552 61.1537 63.1335 61.0894 63.1886 61.0069C63.2437 60.9245 63.2731 60.8275 63.2731 60.7283C63.2749 60.662 63.2631 60.5959 63.2385 60.5343C63.214 60.4726 63.1771 60.4166 63.1302 60.3697C63.0832 60.3228 63.0272 60.2859 62.9656 60.2613C62.9039 60.2367 62.8379 60.225 62.7716 60.2267Z" fill="white"></path><path fill-rule="evenodd" clip-rule="evenodd" d="M69.318 61.442L68.3243 58.5469H67.767L66.7667 61.4447L65.777 58.5469H64.936L66.419 62.707H67.1133L67.7732 60.9332L68.0479 60.0761L68.316 60.9332L68.9747 62.707H69.6679L71.1414 58.5491H70.2993L69.318 61.442Z" fill="white"></path><path fill-rule="evenodd" clip-rule="evenodd" d="M76.322 58.9921C75.9536 58.6704 75.4797 58.4956 74.9907 58.5011C74.425 58.5011 73.8825 58.7258 73.4826 59.1258C73.0826 59.5257 72.8579 60.0682 72.8579 60.6338C72.8579 61.1995 73.0826 61.7419 73.4826 62.1419C73.8825 62.5419 74.425 62.7666 74.9907 62.7666C75.482 62.7742 75.9579 62.595 76.322 62.265V62.7047H77.1022V58.5468H76.322V58.9921ZM74.9907 61.9958C74.7203 61.9962 74.456 61.9163 74.231 61.7664C74.0061 61.6164 73.8307 61.4031 73.727 61.1534C73.6233 60.9038 73.596 60.629 73.6486 60.3638C73.7011 60.0986 73.8311 59.855 74.0221 59.6637C74.2132 59.4725 74.4567 59.3422 74.7218 59.2893C74.9869 59.2364 75.2617 59.2634 75.5115 59.3668C75.7613 59.4701 75.9748 59.6453 76.125 59.87C76.2753 60.0948 76.3554 60.359 76.3554 60.6294C76.3639 60.8109 76.3344 60.9922 76.2689 61.1618C76.2033 61.3313 76.1031 61.4853 75.9747 61.6139C75.8462 61.7425 75.6924 61.8428 75.5229 61.9086C75.3535 61.9744 75.1722 62.0041 74.9907 61.9958Z" fill="white"></path><path fill-rule="evenodd" clip-rule="evenodd" d="M81.6078 61.8798C81.4559 61.9577 81.2891 62.0025 81.1185 62.0113C80.739 62.0113 80.6304 61.8636 80.6304 61.3487V59.265H81.9054V58.5478H80.6304V57.3931L79.8591 57.4733V58.5461H79.061V59.2633H79.8591V61.3498C79.8591 62.286 80.2826 62.7603 81.1185 62.7603C81.3957 62.7515 81.6671 62.6794 81.9121 62.5496L82.0865 62.4666L81.7995 61.7895L81.6078 61.8798Z" fill="white"></path><path fill-rule="evenodd" clip-rule="evenodd" d="M86.0813 58.4864C85.8005 58.482 85.5218 58.5345 85.2618 58.6408C85.0019 58.7471 84.7662 58.9049 84.569 59.1048C84.3718 59.3047 84.2171 59.5425 84.1143 59.8038C84.0115 60.0651 83.9627 60.3445 83.9708 60.6252C83.9597 60.9064 84.0065 61.1868 84.1084 61.449C84.2102 61.7113 84.3649 61.9499 84.5628 62.1498C84.7607 62.3498 84.9977 62.5069 85.2589 62.6114C85.5201 62.716 85.8001 62.7656 86.0813 62.7574C86.4188 62.7659 86.7539 62.6982 87.0617 62.5594C87.3695 62.4205 87.642 62.2141 87.859 61.9555L87.98 61.7989L87.3965 61.3324L87.2705 61.4996C87.1186 61.6612 86.9339 61.7885 86.7288 61.8729C86.5237 61.9573 86.3029 61.9968 86.0813 61.9889C85.7851 62.0009 85.4941 61.9091 85.2584 61.7294C85.0227 61.5497 84.857 61.2935 84.7901 61.0047H88.1182L88.1371 60.8208C88.1836 60.5204 88.1657 60.2135 88.0845 59.9206C88.0033 59.6276 87.8607 59.3553 87.6662 59.1217C87.4615 58.9105 87.2145 58.7448 86.9414 58.6356C86.6683 58.5263 86.3752 58.4758 86.0813 58.4875M84.7912 60.2708C84.8488 59.9732 85.01 59.7057 85.2462 59.5157C85.4824 59.3257 85.7783 59.2256 86.0813 59.2331C86.2354 59.2133 86.3919 59.2246 86.5416 59.2663C86.6912 59.3081 86.831 59.3795 86.9525 59.4763C87.0741 59.573 87.175 59.6932 87.2492 59.8297C87.3235 59.9662 87.3696 60.1162 87.3848 60.2708H84.7912Z" fill="white"></path><path fill-rule="evenodd" clip-rule="evenodd" d="M92.3367 58.5093H92.3329C91.9519 58.4997 91.5793 58.6213 91.2773 58.8537L91.2707 58.5467H90.52V62.7051H91.3002V60.3144C91.2989 60.1774 91.3248 60.0414 91.3762 59.9144C91.4276 59.7874 91.5036 59.6719 91.5998 59.5743C91.696 59.4767 91.8105 59.3992 91.9368 59.346C92.0631 59.2928 92.1986 59.2651 92.3357 59.2644C92.5229 59.2618 92.7072 59.3114 92.8678 59.4077L93.049 59.5191L93.4123 58.8593L93.2451 58.759C92.9724 58.5921 92.6582 58.5055 92.3384 58.5093" fill="white"></path><path fill-rule="evenodd" clip-rule="evenodd" d="M95.6798 60.2267C95.5806 60.2267 95.4836 60.2561 95.4011 60.3112C95.3186 60.3664 95.2544 60.4447 95.2164 60.5363C95.1784 60.628 95.1685 60.7288 95.1879 60.8261C95.2072 60.9234 95.255 61.0128 95.3251 61.0829C95.3953 61.1531 95.4847 61.2008 95.5819 61.2202C95.6792 61.2395 95.7801 61.2296 95.8717 61.1916C95.9634 61.1537 96.0417 61.0894 96.0968 61.0069C96.1519 60.9244 96.1813 60.8275 96.1813 60.7283C96.1829 60.662 96.1711 60.596 96.1464 60.5344C96.1218 60.4729 96.0849 60.4169 96.038 60.37C95.9911 60.3231 95.9352 60.2863 95.8736 60.2616C95.812 60.237 95.7461 60.2251 95.6798 60.2267Z" fill="white"></path><path fill-rule="evenodd" clip-rule="evenodd" d="M56.4128 31.0278C53.4069 31.0281 50.4684 30.1371 47.9689 28.4673C45.4695 26.7976 43.5213 24.4241 42.3707 21.6472C41.2202 18.8702 40.919 15.8143 41.5052 12.8662C42.0914 9.91798 43.5387 7.20984 45.6641 5.08423C47.7895 2.95863 50.4975 1.51102 53.4456 0.924474C56.3937 0.33793 59.4495 0.638798 62.2267 1.78903C65.0038 2.93926 67.3774 4.88719 69.0475 7.38648C70.7175 9.88577 71.6089 12.8242 71.6089 15.8301C71.6041 19.8593 70.0016 23.7221 67.1528 26.5715C64.304 29.4208 60.4414 31.024 56.4122 31.0295M56.4122 2.01607C53.6798 2.01618 51.0088 2.82655 48.737 4.34468C46.4652 5.86282 44.6946 8.02055 43.649 10.545C42.6035 13.0695 42.3301 15.8473 42.8633 18.5271C43.3965 21.207 44.7124 23.6686 46.6446 25.6005C48.5768 27.5325 51.0386 28.8481 53.7185 29.381C56.3984 29.9139 59.1762 29.6401 61.7005 28.5943C64.2248 27.5485 66.3823 25.7776 67.9002 23.5056C69.4181 21.2336 70.2281 18.5625 70.2279 15.8301C70.2239 12.1673 68.7671 8.65568 66.1771 6.06571C63.5872 3.47574 60.0756 2.01894 56.4128 2.01496" fill="white"></path><path fill-rule="evenodd" clip-rule="evenodd" d="M81.6273 31.0278C78.6214 31.028 75.683 30.1369 73.1836 28.4671C70.6842 26.7972 68.7361 24.4238 67.5857 21.6468C66.4352 18.8698 66.1341 15.814 66.7204 12.8658C67.3066 9.91768 68.754 7.20959 70.8794 5.08404C73.0048 2.95849 75.7128 1.51093 78.6609 0.924432C81.609 0.337934 84.6648 0.638837 87.4419 1.78909C90.219 2.93933 92.5926 4.88726 94.2626 7.38654C95.9326 9.88582 96.8239 12.8242 96.8239 15.8301C96.8201 19.8595 95.2179 23.7229 92.3689 26.5724C89.5199 29.422 85.6568 31.0249 81.6273 31.0295M81.6273 2.01607C78.8949 2.01618 76.2239 2.82655 73.9521 4.34469C71.6803 5.86283 69.9096 8.02056 68.8641 10.545C67.8186 13.0695 67.5452 15.8473 68.0784 18.5271C68.6116 21.207 69.9275 23.6686 71.8597 25.6005C73.7919 27.5325 76.2537 28.8481 78.9336 29.381C81.6135 29.9139 84.3913 29.6401 86.9156 28.5943C89.4399 27.5485 91.5974 25.7776 93.1153 23.5056C94.6332 21.2336 95.4432 18.5625 95.443 15.8301C95.4387 12.1673 93.9817 8.65576 91.3917 6.06584C88.8017 3.47591 85.2901 2.01909 81.6273 2.01496" fill="white"></path><path fill-rule="evenodd" clip-rule="evenodd" d="M89.2408 11.0808C89.0676 11.1157 88.8969 11.1618 88.7297 11.219C87.874 11.5331 87.0445 11.9147 86.2493 12.3603C84.8187 13.1154 83.8462 13.2709 82.8632 12.922C82.2236 12.6784 81.6017 12.3907 81.0019 12.061L80.6346 11.8704C79.6899 11.3117 78.6114 11.0193 77.5138 11.0245C76.5456 11.1026 75.6092 11.4066 74.7798 11.9122V13.4325L75.1509 13.2391C75.3738 13.121 75.5968 13.0034 75.823 12.888C76.3888 12.5726 77.024 12.4024 77.6718 12.3927C78.3195 12.383 78.9595 12.534 79.5345 12.8323C80.0918 13.111 80.6424 13.4035 81.1919 13.6983L81.2928 13.7507C82.0772 14.1967 82.9637 14.432 83.866 14.4339C84.7684 14.4357 85.6558 14.204 86.4421 13.7613L87.015 13.4554C87.3811 13.2598 87.7456 13.0653 88.1128 12.8758C88.4695 12.6911 88.8492 12.5548 89.2419 12.4706L89.2408 11.0808Z" fill="white"></path><path fill-rule="evenodd" clip-rule="evenodd" d="M89.238 14.3053C89.0651 14.3405 88.8944 14.3861 88.727 14.4419C87.8714 14.757 87.042 15.139 86.2465 15.5843C84.8159 16.3378 83.8435 16.4933 82.8604 16.1461C82.2145 15.8999 81.5862 15.6096 80.9801 15.2773L80.6313 15.095C79.7567 14.5323 78.7371 14.2367 77.6972 14.2443C76.6573 14.2519 75.6421 14.5625 74.7759 15.1379V16.6571L75.147 16.4626C75.37 16.3461 75.5929 16.228 75.8191 16.1126C76.3846 15.7969 77.0197 15.6265 77.6673 15.6168C78.3149 15.607 78.9548 15.7583 79.5295 16.0569C80.1074 16.345 80.6798 16.6498 81.2889 16.9753C82.0733 17.4212 82.9597 17.6567 83.8619 17.6588C84.7642 17.661 85.6517 17.4297 86.4382 16.9876L86.957 16.7089C87.3404 16.5038 87.7238 16.2971 88.1089 16.1015C88.4656 15.9168 88.8453 15.7806 89.238 15.6963V14.3053Z" fill="white"></path><path fill-rule="evenodd" clip-rule="evenodd" d="M89.2413 17.528C89.0682 17.563 88.8975 17.6092 88.7303 17.6662C87.8746 17.9801 87.0451 18.3616 86.2498 18.8069C84.8193 19.5621 83.8457 19.7148 82.8638 19.3704C82.2155 19.1223 81.5851 18.8302 80.9768 18.496L80.6346 18.3176C79.6885 17.7622 78.611 17.4701 77.5138 17.4717C76.5457 17.5501 75.6093 17.8541 74.7798 18.3594V19.8814L75.1509 19.6869C75.3738 19.5688 75.5968 19.4512 75.823 19.3352C76.3891 19.0205 77.0242 18.8507 77.6718 18.841C78.3194 18.8312 78.9593 18.9819 79.5345 19.2795C80.0695 19.5448 80.6006 19.8307 81.13 20.1155L81.2922 20.2013C82.0768 20.6469 82.9632 20.8821 83.8655 20.8839C84.7678 20.8858 85.6552 20.6543 86.4415 20.2119L86.9604 19.9332C87.3438 19.7281 87.7272 19.5231 88.1123 19.3258C88.4692 19.1416 88.8488 19.0054 89.2413 18.9206V17.528Z" fill="white"></path><path d="M62.8663 11.6797H48.4048V13.2005H62.8663V11.6797Z" fill="white"></path><path d="M62.8663 14.9033H48.4048V16.4242H62.8663V14.9033Z" fill="white"></path><path d="M62.8663 18.1274H48.4048V19.6483H62.8663V18.1274Z" fill="white"></path><path d="M138.779 39.8319V37.4054H137.913V36.9111H140.234V37.4054H139.369V39.8319H138.779Z" fill="white"></path><path d="M140.608 39.8319V36.9111H141.49L142.02 38.9034L142.544 36.9111H143.429V39.8319H142.881V37.5331L142.302 39.8319H141.734L141.156 37.5331V39.8319H140.608Z" fill="white"></path></svg>